<?xml version="1.0" encoding="UTF-8"?>
<svg version="1.1" xmlns="http://www.w3.org/2000/svg" width="108" height="108">
<path d="M0 0 C4.1287996 0.58049578 6.91722135 1.93495804 10.4375 4.140625 C11.48776367 4.79321289 12.53802734 5.44580078 13.62011719 6.11816406 C14.73547852 6.82166992 15.85083984 7.52517578 17 8.25 C18.16003121 8.97435487 19.32051805 9.69798055 20.48144531 10.42089844 C22.84339831 11.89291837 25.20288592 13.36877242 27.56054688 14.84765625 C30.75567588 16.85003854 33.96178833 18.83416646 37.171875 20.8125 C38.11675781 21.39483398 39.06164062 21.97716797 40.03515625 22.57714844 C41.37900391 23.40520996 41.37900391 23.40520996 42.75 24.25 C45.15992234 25.73563118 47.56775547 27.22297427 49.96191406 28.73388672 C51.7691505 29.85659014 53.61664177 30.91391235 55.46875 31.9609375 C58.75760409 34.61029219 59.27268943 36.2033056 59.75 40.375 C59.55513829 44.65752895 59.26104791 46.75367116 56.20117188 49.77783203 C50.89968375 53.79256222 45.07368686 56.95771791 39.26074219 60.16308594 C33.75788328 63.26307923 28.45745475 66.68071035 23.125 70.0625 C20.26725959 71.84905258 17.40669209 73.63061624 14.54003906 75.40283203 C12.89978021 76.43422125 11.27510173 77.491016 9.67089844 78.57763672 C8.97254883 79.04572754 8.27419922 79.51381836 7.5546875 79.99609375 C6.95897949 80.40915771 6.36327148 80.82222168 5.74951172 81.24780273 C3.44603775 82.23817439 2.30585526 81.88434704 0 81 C-1.51953125 79.51171875 -1.51953125 79.51171875 -2.8125 77.6875 C-3.25207031 77.09324219 -3.69164062 76.49898438 -4.14453125 75.88671875 C-5 74 -5 74 -4.78686523 72.04199219 C-3.76877921 69.39995945 -2.70619995 68.83469437 -0.265625 67.44140625 C0.52642334 66.97919678 1.31847168 66.5169873 2.13452148 66.04077148 C2.99762939 65.55294189 3.8607373 65.0651123 4.75 64.5625 C6.56995067 63.50421949 8.38892862 62.44426477 10.20703125 61.3828125 C11.15529785 60.83270508 12.10356445 60.28259766 13.08056641 59.71582031 C17.91771905 56.87291107 22.67619629 53.90512161 27.4375 50.9375 C29.16518444 49.86299154 30.89303798 48.78875491 32.62109375 47.71484375 C33.38663574 47.23644043 34.15217773 46.75803711 34.94091797 46.26513672 C36.63689065 45.22310086 38.36364607 44.23133695 40.09765625 43.25390625 C40.72542969 42.84011719 41.35320312 42.42632812 42 42 C42 41.34 42 40.68 42 40 C40.20892692 38.67361888 40.20892692 38.67361888 37.85546875 37.3828125 C36.95957031 36.86388428 36.06367187 36.34495605 35.140625 35.81030273 C34.16609375 35.25415283 33.1915625 34.69800293 32.1875 34.125 C24.54050662 29.68897116 16.96320353 25.17700974 9.5 20.4375 C8.73067139 19.94975098 7.96134277 19.46200195 7.16870117 18.95947266 C3.07873991 16.35507828 -0.97639819 13.70574489 -5 11 C-4.46884894 6.48521602 -2.63379708 3.65333143 0 0 Z " fill="#3B9EC8" transform="translate(50,25)"/>
<path d="M0 0 C2.46035743 1.43157965 3.2374034 3.06890671 4.515625 5.58984375 C4.94359375 6.41613281 5.3715625 7.24242187 5.8125 8.09375 C6.12703125 8.73183594 6.4415625 9.36992187 6.765625 10.02734375 C3.36836827 12.83915933 -0.08305342 15.27249438 -3.84765625 17.56640625 C-4.92402344 18.22511719 -6.00039063 18.88382813 -7.109375 19.5625 C-8.25514205 20.2592236 -9.40097658 20.95583624 -10.546875 21.65234375 C-12.8875098 23.08073784 -15.2269538 24.51107675 -17.56640625 25.94140625 C-18.14121735 26.29237366 -18.71602844 26.64334106 -19.30825806 27.00494385 C-22.69970134 29.07831158 -26.0748461 31.17488999 -29.43359375 33.30078125 C-30.17375732 33.76919434 -30.9139209 34.23760742 -31.67651367 34.72021484 C-33.01617923 35.57115439 -34.35370331 36.42547785 -35.6887207 37.28369141 C-40.01617061 40.02734375 -40.01617061 40.02734375 -42.234375 40.02734375 C-42.234375 40.68734375 -42.234375 41.34734375 -42.234375 42.02734375 C-41.5139502 42.29434082 -40.79352539 42.56133789 -40.05126953 42.83642578 C-37.21276551 44.03647974 -34.76859383 45.43873675 -32.1640625 47.08203125 C-31.193479 47.69151611 -30.22289551 48.30100098 -29.22290039 48.92895508 C-28.19543701 49.58017334 -27.16797363 50.2313916 -26.109375 50.90234375 C-25.05290771 51.56838623 -23.99644043 52.23442871 -22.90795898 52.9206543 C-20.73929936 54.28823195 -18.57157672 55.65729655 -16.40478516 57.02783203 C-13.43195743 58.90273263 -10.45060392 60.76297172 -7.46484375 62.6171875 C-5.74216297 63.69136692 -4.01950536 64.76558349 -2.296875 65.83984375 C-1.4929834 66.33661621 -0.6890918 66.83338867 0.13916016 67.34521484 C0.87054199 67.8036377 1.60192383 68.26206055 2.35546875 68.734375 C2.99347412 69.13116455 3.63147949 69.5279541 4.28881836 69.93676758 C5.765625 71.02734375 5.765625 71.02734375 6.765625 73.02734375 C4.455625 75.99734375 2.145625 78.96734375 -0.234375 82.02734375 C-4.0934465 81.06257587 -6.30778374 79.92500531 -9.64453125 77.8515625 C-10.70824951 77.19389893 -11.77196777 76.53623535 -12.86791992 75.85864258 C-14.01103669 75.14425372 -15.15401897 74.42964964 -16.296875 73.71484375 C-17.46763137 72.98751455 -18.638613 72.26054782 -19.80981445 71.53393555 C-23.2893557 69.37252915 -26.76210733 67.20041554 -30.234375 65.02734375 C-31.2130957 64.41665039 -32.19181641 63.80595703 -33.20019531 63.17675781 C-35.77651721 61.56828493 -38.35012159 59.95560914 -40.921875 58.33984375 C-42.04057983 57.63831177 -42.04057983 57.63831177 -43.18188477 56.92260742 C-44.56014281 56.05128759 -45.9328023 55.17102248 -47.29858398 54.28027344 C-48.60356627 53.4356311 -49.92694782 52.61884148 -51.26586914 51.82910156 C-54.7126651 49.66932546 -56.01576314 48.72525182 -57.26953125 44.72265625 C-57.27855469 43.54445312 -57.28757813 42.36625 -57.296875 41.15234375 C-57.34972656 39.97929688 -57.40257812 38.80625 -57.45703125 37.59765625 C-55.51621369 31.93022095 -51.21839777 30.0234452 -46.234375 27.02734375 C-45.1822583 26.37314453 -44.1301416 25.71894531 -43.04614258 25.04492188 C-39.58315848 22.90733344 -36.10022333 20.80641828 -32.609375 18.71484375 C-30.1264732 17.22322786 -27.64481603 15.72956086 -25.1640625 14.234375 C-24.56168762 13.87158447 -23.95931274 13.50879395 -23.33868408 13.13500977 C-19.85488593 11.02967912 -16.40748723 8.87863907 -12.9921875 6.6640625 C-12.25564941 6.18815674 -11.51911133 5.71225098 -10.76025391 5.22192383 C-9.45089429 4.36905703 -8.14794009 3.50623764 -6.85302734 2.6315918 C-4.51994373 1.11645124 -2.8254383 0.03457704 0 0 Z " fill="#5FB0D2" transform="translate(57.234375,-0.02734375)"/>
<path d="M0 0 C-1.28658462 3.85975386 -2.66804379 4.30028026 -6.1171875 6.37109375 C-7.19049316 7.02231201 -8.26379883 7.67353027 -9.36962891 8.34448242 C-10.53806431 9.04219117 -11.7065218 9.73986292 -12.875 10.4375 C-14.65848436 11.51544259 -16.4400713 12.59647662 -18.22164917 13.67756653 C-19.42018834 14.40448864 -20.61934955 15.1303861 -21.81912231 15.85527039 C-27.13049632 19.06619229 -32.38676787 22.35898436 -37.625 25.6875 C-38.73077393 26.38927368 -38.73077393 26.38927368 -39.85888672 27.10522461 C-40.55771973 27.54874268 -41.25655273 27.99226074 -41.9765625 28.44921875 C-42.97478027 29.07642822 -42.97478027 29.07642822 -43.99316406 29.71630859 C-45.39531433 30.61320715 -46.78170601 31.53500994 -48.15527344 32.47509766 C-49.20376465 33.17771729 -49.20376465 33.17771729 -50.2734375 33.89453125 C-51.20422119 34.53612183 -51.20422119 34.53612183 -52.15380859 35.19067383 C-54.52351086 36.22949465 -55.62320628 35.92491461 -58 35 C-59.51953125 33.51171875 -59.51953125 33.51171875 -60.8125 31.6875 C-61.25207031 31.09324219 -61.69164062 30.49898437 -62.14453125 29.88671875 C-63 28 -63 28 -62.78686523 26.04199219 C-61.76877921 23.39995945 -60.70619995 22.83469437 -58.265625 21.44140625 C-57.47486572 20.97887451 -56.68410645 20.51634277 -55.86938477 20.03979492 C-55.00498779 19.5522876 -54.14059082 19.06478027 -53.25 18.5625 C-47.58668801 15.33032293 -42.03556977 12.10087854 -36.73828125 8.2890625 C-24.09215527 -0.6276653 -15.28921323 -2.67987223 0 0 Z " fill="#277EAB" transform="translate(108,71)"/>
<path d="M0 0 C4.31483398 0.57919888 7.22101487 2.12355145 10.89453125 4.421875 C12.01537109 5.11796875 13.13621094 5.8140625 14.29101562 6.53125 C15.46495484 7.27065698 16.63878227 8.01024148 17.8125 8.75 C18.97417763 9.47465091 20.13628358 10.19861567 21.29882812 10.921875 C23.53038657 12.31162699 25.75756448 13.70766651 27.98291016 15.10742188 C29.85166812 16.27966752 31.72542575 17.44403285 33.60693359 18.59570312 C35.42003187 19.70568181 37.21311114 20.84830288 39 22 C39 22.33 39 22.66 39 23 C22.11464027 25.65643384 11.54368327 23.50095996 -2.41552734 13.5715332 C-4.27559871 11.72665194 -4.72219325 10.58603964 -5 8 C-4.00390625 5.859375 -4.00390625 5.859375 -2.5625 3.75 C-2.08941406 3.04359375 -1.61632813 2.3371875 -1.12890625 1.609375 C-0.75636719 1.07828125 -0.38382813 0.5471875 0 0 Z " fill="#45AFD7" transform="translate(50,25)"/>
<path d="M0 0 C-2.2385994 6.7157982 -10.97600978 10.8639446 -17.01464844 13.91796875 C-25.5064638 16.99580042 -35.25089873 15.29849288 -44 14 C-29.41652202 2.06547408 -19.08263508 -3.09532484 0 0 Z " fill="#308CB8" transform="translate(108,71)"/>
<path d="M0 0 C4.12486838 -0.08676908 8.24950384 -0.14031295 12.375 -0.1875 C13.550625 -0.21263672 14.72625 -0.23777344 15.9375 -0.26367188 C17.61972656 -0.27817383 17.61972656 -0.27817383 19.3359375 -0.29296875 C20.37282715 -0.3086792 21.4097168 -0.32438965 22.47802734 -0.34057617 C23.31027832 -0.22818604 24.1425293 -0.1157959 25 0 C25.66 0.99 26.32 1.98 27 3 C24.69 5.97 22.38 8.94 20 12 C16.63648837 11.15912209 14.92626657 10.5170228 12.109375 8.75 C11.40039062 8.3065625 10.69140625 7.863125 9.9609375 7.40625 C9.23132812 6.9421875 8.50171875 6.478125 7.75 6 C7.00492188 5.5359375 6.25984375 5.071875 5.4921875 4.59375 C1.44000776 2.04072833 1.44000776 2.04072833 0 1 C0 0.67 0 0.34 0 0 Z " fill="#3B8CB5" transform="translate(37,70)"/>
<path d="M0 0 C5.94 0 11.88 0 18 0 C9.2992126 6.96062992 9.2992126 6.96062992 5.9375 7.0625 C4 6 4 6 0 0 Z " fill="#2174A2" transform="translate(46,100)"/>
</svg>
