<?xml version="1.0" encoding="iso-8859-1"?>
<svg version="1.1" id="Layer_1" xmlns="http://www.w3.org/2000/svg" xmlns:xlink="http://www.w3.org/1999/xlink" 
	 viewBox="0 0 512 512" xml:space="preserve">
<rect x="66.783" style="fill:#EDEDED;" width="378.435" height="512"/>
<rect x="256" style="fill:#D8D8DA;" width="189.217" height="512"/>
<rect x="133.565" y="289.391" style="fill:#F8F8F9;" width="244.87" height="155.826"/>
<rect x="256" y="289.391" style="fill:#EDEDED;" width="122.435" height="155.826"/>
<rect x="66.783" style="fill:#D1E5F5;" width="378.435" height="222.609"/>
<rect x="256" style="fill:#B4D8F1;" width="189.217" height="222.609"/>
<g>
	<path style="fill:#88888F;" d="M306.087,389.565h-0.007c-12.27-0.004-22.254-9.991-22.254-22.261
		c0-12.274,9.986-22.261,22.261-22.261s22.261,9.987,22.261,22.261c0.002,5.944-2.313,11.534-6.519,15.742
		C317.624,387.25,312.033,389.565,306.087,389.565z"/>
	<rect x="183.652" y="350.609" style="fill:#88888F;" width="83.478" height="33.391"/>
</g>
<polygon style="fill:#95D5A7;" points="348.522,80 235.826,192.696 160.696,117.565 66.783,211.478 66.783,222.609 445.217,222.609 
	445.217,176.696 "/>
<polygon style="fill:#80CB93;" points="445.217,176.696 348.522,80 256,172.522 256,222.609 445.217,222.609 "/>
<path style="fill:#F8E99B;" d="M222.609,100.174h-0.007c-12.27-0.004-22.254-9.991-22.254-22.261
	c0-12.274,9.986-22.261,22.261-22.261s22.261,9.987,22.261,22.261c0.002,5.944-2.313,11.534-6.519,15.742
	C234.145,97.859,228.555,100.174,222.609,100.174z"/>
</svg>